<svg xmlns="http://www.w3.org/2000/svg" width="760" height="420" viewBox="0 0 760 420" role="img" aria-label="MySpace memorial card">
<rect width="760" height="420" fill="#000030"/>
<rect x="336" y="383" width="1" height="1" fill="#c0c0ff"/>
<rect x="580" y="179" width="1" height="1" fill="#c0c0ff"/>
<rect x="157" y="410" width="3" height="3" fill="#c0c0ff"/>
<rect x="388" y="261" width="1" height="1" fill="#ffffff"/>
<rect x="27" y="197" width="3" height="3" fill="#c0c0ff"/>
<rect x="679" y="89" width="1" height="1" fill="#c0c0ff"/>
<rect x="36" y="75" width="3" height="3" fill="#ffffff"/>
<rect x="255" y="248" width="1" height="1" fill="#c0c0ff"/>
<rect x="22" y="72" width="2" height="2" fill="#ffffff"/>
<rect x="193" y="43" width="1" height="1" fill="#c0c0ff"/>
<rect x="661" y="232" width="1" height="1" fill="#c0c0ff"/>
<rect x="616" y="325" width="1" height="1" fill="#c0c0ff"/>
<rect x="232" y="333" width="1" height="1" fill="#c0c0ff"/>
<rect x="555" y="30" width="3" height="3" fill="#c0c0ff"/>
<rect x="509" y="223" width="1" height="1" fill="#c0c0ff"/>
<rect x="722" y="292" width="2" height="2" fill="#c0c0ff"/>
<rect x="385" y="250" width="1" height="1" fill="#ffffff"/>
<rect x="755" y="386" width="1" height="1" fill="#c0c0ff"/>
<rect x="598" y="74" width="1" height="1" fill="#ffffff"/>
<rect x="683" y="394" width="3" height="3" fill="#c0c0ff"/>
<rect x="254" y="29" width="1" height="1" fill="#c0c0ff"/>
<rect x="344" y="391" width="1" height="1" fill="#c0c0ff"/>
<rect x="396" y="373" width="1" height="1" fill="#ffffff"/>
<rect x="435" y="247" width="1" height="1" fill="#ffffff"/>
<rect x="692" y="268" width="1" height="1" fill="#c0c0ff"/>
<rect x="696" y="113" width="1" height="1" fill="#c0c0ff"/>
<rect x="340" y="273" width="1" height="1" fill="#c0c0ff"/>
<rect x="364" y="398" width="2" height="2" fill="#c0c0ff"/>
<rect x="405" y="105" width="1" height="1" fill="#c0c0ff"/>
<rect x="710" y="76" width="1" height="1" fill="#c0c0ff"/>
<rect x="103" y="225" width="1" height="1" fill="#c0c0ff"/>
<rect x="671" y="240" width="2" height="2" fill="#c0c0ff"/>
<rect x="88" y="27" width="1" height="1" fill="#ffffff"/>
<rect x="535" y="294" width="3" height="3" fill="#ffffff"/>
<rect x="25" y="132" width="3" height="3" fill="#c0c0ff"/>
<rect x="558" y="414" width="1" height="1" fill="#ffffff"/>
<rect x="277" y="157" width="2" height="2" fill="#c0c0ff"/>
<rect x="298" y="195" width="2" height="2" fill="#c0c0ff"/>
<rect x="474" y="196" width="3" height="3" fill="#c0c0ff"/>
<rect x="483" y="370" width="1" height="1" fill="#c0c0ff"/>
<rect x="701" y="87" width="1" height="1" fill="#c0c0ff"/>
<rect x="543" y="86" width="1" height="1" fill="#ffffff"/>
<rect x="116" y="228" width="1" height="1" fill="#ffffff"/>
<rect x="49" y="141" width="2" height="2" fill="#ffffff"/>
<rect x="69" y="52" width="1" height="1" fill="#c0c0ff"/>
<rect x="65" y="251" width="1" height="1" fill="#c0c0ff"/>
<rect x="351" y="106" width="3" height="3" fill="#c0c0ff"/>
<rect x="102" y="309" width="2" height="2" fill="#ffffff"/>
<rect x="30" y="186" width="2" height="2" fill="#c0c0ff"/>
<rect x="646" y="416" width="2" height="2" fill="#c0c0ff"/>
<rect x="295" y="360" width="1" height="1" fill="#ffffff"/>
<rect x="477" y="140" width="2" height="2" fill="#c0c0ff"/>
<rect x="369" y="56" width="1" height="1" fill="#c0c0ff"/>
<rect x="545" y="407" width="3" height="3" fill="#c0c0ff"/>
<rect x="635" y="232" width="1" height="1" fill="#c0c0ff"/>
<rect x="220" y="26" width="1" height="1" fill="#c0c0ff"/>
<rect x="609" y="103" width="1" height="1" fill="#c0c0ff"/>
<rect x="630" y="261" width="2" height="2" fill="#c0c0ff"/>
<rect x="221" y="248" width="2" height="2" fill="#c0c0ff"/>
<rect x="720" y="373" width="1" height="1" fill="#c0c0ff"/>
<rect x="586" y="278" width="1" height="1" fill="#c0c0ff"/>
<rect x="227" y="274" width="1" height="1" fill="#c0c0ff"/>
<rect x="413" y="379" width="1" height="1" fill="#c0c0ff"/>
<rect x="646" y="318" width="3" height="3" fill="#c0c0ff"/>
<rect x="133" y="76" width="2" height="2" fill="#c0c0ff"/>
<rect x="197" y="164" width="1" height="1" fill="#c0c0ff"/>
<rect x="95" y="312" width="1" height="1" fill="#c0c0ff"/>
<rect x="177" y="76" width="2" height="2" fill="#c0c0ff"/>
<rect x="256" y="122" width="3" height="3" fill="#c0c0ff"/>
<rect x="495" y="170" width="2" height="2" fill="#c0c0ff"/>
<rect x="700" y="378" width="1" height="1" fill="#c0c0ff"/>
<rect x="281" y="296" width="1" height="1" fill="#c0c0ff"/>
<rect x="655" y="377" width="2" height="2" fill="#ffffff"/>
<rect x="196" y="90" width="2" height="2" fill="#c0c0ff"/>
<rect x="74" y="139" width="2" height="2" fill="#ffffff"/>
<rect x="566" y="243" width="1" height="1" fill="#c0c0ff"/>
<rect x="345" y="14" width="1" height="1" fill="#c0c0ff"/>
<rect x="131" y="261" width="1" height="1" fill="#c0c0ff"/>
<rect x="504" y="207" width="3" height="3" fill="#c0c0ff"/>
<rect x="408" y="301" width="2" height="2" fill="#ffffff"/>
<rect x="544" y="224" width="1" height="1" fill="#c0c0ff"/>
<rect x="426" y="249" width="3" height="3" fill="#c0c0ff"/>
<rect x="750" y="119" width="3" height="3" fill="#ffffff"/>
<rect x="433" y="145" width="2" height="2" fill="#c0c0ff"/>
<rect x="316" y="183" width="1" height="1" fill="#c0c0ff"/>
<rect x="699" y="19" width="1" height="1" fill="#ffffff"/>
<rect x="530" y="99" width="2" height="2" fill="#c0c0ff"/>
<rect x="338" y="120" width="2" height="2" fill="#ffffff"/>
<rect x="168" y="138" width="1" height="1" fill="#ffffff"/>
<rect x="165" y="342" width="1" height="1" fill="#ffffff"/>
<rect x="10" y="10" width="740" height="400" fill="#c0c0c0" stroke="#808080" stroke-width="2"/><rect x="14" y="14" width="732" height="392" fill="none" stroke="#000000" stroke-width="1"/>
<rect x="22" y="22" width="716" height="54" fill="#000000" stroke="#ff6600" stroke-width="1"/>
<text x="380" y="48" font-family="monospace" font-size="21" font-weight="bold" fill="#ff6600" text-anchor="middle">MYSPACE</text>
<text x="380" y="66" font-family="monospace" font-size="10" fill="#c0c0c0" text-anchor="middle">defunct websites - a memorial in svg</text>
<rect x="22" y="86" width="716" height="180" fill="#000000" opacity="0.72" stroke="#808080"/>
<text x="40" y="108" font-family="monospace" font-size="13" fill="#ff6600">+++ SERVICE TERMINATED +++</text>
<text x="40" y="130" font-family="monospace" font-size="13" fill="#c0c0c0">this page is a memorial</text>
<text x="40" y="152" font-family="monospace" font-size="13" fill="#c0c0c0">the site it remembers is gone</text>
<text x="40" y="174" font-family="monospace" font-size="13" fill="#c0c0c0">what remains: snapshots, stories,</text>
<text x="40" y="196" font-family="monospace" font-size="13" fill="#c0c0c0">and the buttons below.</text>
<text x="40" y="218" font-family="monospace" font-size="13" fill="#c0c0c0"></text>
<text x="40" y="240" font-family="monospace" font-size="13" fill="#00ff66">please do not feed the 404</text>
<g><rect x="22" y="276" width="716" height="26" fill="#ffcc00"/><polygon points="-4,302 8,302 34,276 22,276" fill="#ffcc00"/><polygon points="8,302 20,302 46,276 34,276" fill="#000000"/><polygon points="20,302 32,302 58,276 46,276" fill="#ffcc00"/><polygon points="32,302 44,302 70,276 58,276" fill="#000000"/><polygon points="44,302 56,302 82,276 70,276" fill="#ffcc00"/><polygon points="56,302 68,302 94,276 82,276" fill="#000000"/><polygon points="68,302 80,302 106,276 94,276" fill="#ffcc00"/><polygon points="80,302 92,302 118,276 106,276" fill="#000000"/><polygon points="92,302 104,302 130,276 118,276" fill="#ffcc00"/><polygon points="104,302 116,302 142,276 130,276" fill="#000000"/><polygon points="116,302 128,302 154,276 142,276" fill="#ffcc00"/><polygon points="128,302 140,302 166,276 154,276" fill="#000000"/><polygon points="140,302 152,302 178,276 166,276" fill="#ffcc00"/><polygon points="152,302 164,302 190,276 178,276" fill="#000000"/><polygon points="164,302 176,302 202,276 190,276" fill="#ffcc00"/><polygon points="176,302 188,302 214,276 202,276" fill="#000000"/><polygon points="188,302 200,302 226,276 214,276" fill="#ffcc00"/><polygon points="200,302 212,302 238,276 226,276" fill="#000000"/><polygon points="212,302 224,302 250,276 238,276" fill="#ffcc00"/><polygon points="224,302 236,302 262,276 250,276" fill="#000000"/><polygon points="236,302 248,302 274,276 262,276" fill="#ffcc00"/><polygon points="248,302 260,302 286,276 274,276" fill="#000000"/><polygon points="260,302 272,302 298,276 286,276" fill="#ffcc00"/><polygon points="272,302 284,302 310,276 298,276" fill="#000000"/><polygon points="284,302 296,302 322,276 310,276" fill="#ffcc00"/><polygon points="296,302 308,302 334,276 322,276" fill="#000000"/><polygon points="308,302 320,302 346,276 334,276" fill="#ffcc00"/><polygon points="320,302 332,302 358,276 346,276" fill="#000000"/><polygon points="332,302 344,302 370,276 358,276" fill="#ffcc00"/><polygon points="344,302 356,302 382,276 370,276" fill="#000000"/><polygon points="356,302 368,302 394,276 382,276" fill="#ffcc00"/><polygon points="368,302 380,302 406,276 394,276" fill="#000000"/><polygon points="380,302 392,302 418,276 406,276" fill="#ffcc00"/><polygon points="392,302 404,302 430,276 418,276" fill="#000000"/><polygon points="404,302 416,302 442,276 430,276" fill="#ffcc00"/><polygon points="416,302 428,302 454,276 442,276" fill="#000000"/><polygon points="428,302 440,302 466,276 454,276" fill="#ffcc00"/><polygon points="440,302 452,302 478,276 466,276" fill="#000000"/><polygon points="452,302 464,302 490,276 478,276" fill="#ffcc00"/><polygon points="464,302 476,302 502,276 490,276" fill="#000000"/><polygon points="476,302 488,302 514,276 502,276" fill="#ffcc00"/><polygon points="488,302 500,302 526,276 514,276" fill="#000000"/><polygon points="500,302 512,302 538,276 526,276" fill="#ffcc00"/><polygon points="512,302 524,302 550,276 538,276" fill="#000000"/><polygon points="524,302 536,302 562,276 550,276" fill="#ffcc00"/><polygon points="536,302 548,302 574,276 562,276" fill="#000000"/><polygon points="548,302 560,302 586,276 574,276" fill="#ffcc00"/><polygon points="560,302 572,302 598,276 586,276" fill="#000000"/><polygon points="572,302 584,302 610,276 598,276" fill="#ffcc00"/><polygon points="584,302 596,302 622,276 610,276" fill="#000000"/><polygon points="596,302 608,302 634,276 622,276" fill="#ffcc00"/><polygon points="608,302 620,302 646,276 634,276" fill="#000000"/><polygon points="620,302 632,302 658,276 646,276" fill="#ffcc00"/><polygon points="632,302 644,302 670,276 658,276" fill="#000000"/><polygon points="644,302 656,302 682,276 670,276" fill="#ffcc00"/><polygon points="656,302 668,302 694,276 682,276" fill="#000000"/><polygon points="668,302 680,302 706,276 694,276" fill="#ffcc00"/><polygon points="680,302 692,302 718,276 706,276" fill="#000000"/><polygon points="692,302 704,302 730,276 718,276" fill="#ffcc00"/><polygon points="704,302 716,302 742,276 730,276" fill="#000000"/><polygon points="716,302 728,302 754,276 742,276" fill="#ffcc00"/><polygon points="728,302 740,302 766,276 754,276" fill="#000000"/><rect x="22" y="276" width="716" height="26" fill="none" stroke="#808080" stroke-width="2"/></g>
<g><rect x="34" y="322" width="88" height="31" fill="#000000"/><rect x="35" y="323" width="86" height="29" fill="none" stroke="#ff6600" stroke-width="1"/><rect x="37" y="325" width="82" height="11" fill="#ff6600"/><text x="78" y="333" font-family="monospace" font-size="8" fill="#ffffff" text-anchor="middle" font-weight="bold">DEAD WEB</text><text x="78" y="346" font-family="monospace" font-size="6" fill="#ff6600" text-anchor="middle">KEEP THE WEB FREE</text></g>
<g><rect x="132" y="322" width="88" height="31" fill="#000000"/><rect x="133" y="323" width="86" height="29" fill="none" stroke="#000080" stroke-width="1"/><rect x="135" y="325" width="82" height="11" fill="#000080"/><text x="176" y="333" font-family="monospace" font-size="8" fill="#ffffff" text-anchor="middle" font-weight="bold">DEAD WEB</text><text x="176" y="346" font-family="monospace" font-size="6" fill="#000080" text-anchor="middle">NO FRAMES ZONE</text></g>
<text x="240" y="334" font-family="monospace" font-size="10" fill="#c0c0c0">[ this site is best viewed in any browser ]</text>
<g><rect x="34" y="366" width="11" height="18" fill="#000000" stroke="#00ff00" stroke-width="1"/><text x="39" y="380" font-family="monospace" font-size="13" fill="#00ff00" text-anchor="middle">8</text><rect x="47" y="366" width="11" height="18" fill="#000000" stroke="#00ff00" stroke-width="1"/><text x="52" y="380" font-family="monospace" font-size="13" fill="#00ff00" text-anchor="middle">7</text><rect x="60" y="366" width="11" height="18" fill="#000000" stroke="#00ff00" stroke-width="1"/><text x="65" y="380" font-family="monospace" font-size="13" fill="#00ff00" text-anchor="middle">6</text><rect x="73" y="366" width="11" height="18" fill="#000000" stroke="#00ff00" stroke-width="1"/><text x="78" y="380" font-family="monospace" font-size="13" fill="#00ff00" text-anchor="middle">4</text><rect x="86" y="366" width="11" height="18" fill="#000000" stroke="#00ff00" stroke-width="1"/><text x="91" y="380" font-family="monospace" font-size="13" fill="#00ff00" text-anchor="middle">2</text><rect x="99" y="366" width="11" height="18" fill="#000000" stroke="#00ff00" stroke-width="1"/><text x="104" y="380" font-family="monospace" font-size="13" fill="#00ff00" text-anchor="middle">9</text><rect x="112" y="366" width="11" height="18" fill="#000000" stroke="#00ff00" stroke-width="1"/><text x="117" y="380" font-family="monospace" font-size="13" fill="#00ff00" text-anchor="middle">0</text><text x="34" y="396" font-family="monospace" font-size="8" fill="#c0c0c0">pages served</text></g>
<text x="724" y="396" font-family="monospace" font-size="9" fill="#808080" text-anchor="end">last updated 1999 - gfx generated offline</text>
</svg>
