<svg xmlns="http://www.w3.org/2000/svg" width="760" height="420" viewBox="0 0 760 420" role="img" aria-label="Newgrounds memorial card">
<rect width="760" height="420" fill="#100040"/>
<rect x="705" y="245" width="1" height="1" fill="#ffd0f0"/>
<rect x="685" y="155" width="3" height="3" fill="#ffffff"/>
<rect x="96" y="361" width="1" height="1" fill="#ffd0f0"/>
<rect x="393" y="106" width="2" height="2" fill="#ffd0f0"/>
<rect x="269" y="33" width="2" height="2" fill="#ffd0f0"/>
<rect x="420" y="58" width="3" height="3" fill="#ffffff"/>
<rect x="182" y="98" width="1" height="1" fill="#ffd0f0"/>
<rect x="61" y="118" width="3" height="3" fill="#ffd0f0"/>
<rect x="111" y="316" width="2" height="2" fill="#ffd0f0"/>
<rect x="588" y="53" width="2" height="2" fill="#ffd0f0"/>
<rect x="558" y="104" width="2" height="2" fill="#ffffff"/>
<rect x="511" y="210" width="3" height="3" fill="#ffd0f0"/>
<rect x="223" y="262" width="3" height="3" fill="#ffd0f0"/>
<rect x="41" y="142" width="1" height="1" fill="#ffd0f0"/>
<rect x="638" y="276" width="2" height="2" fill="#ffffff"/>
<rect x="758" y="371" width="1" height="1" fill="#ffd0f0"/>
<rect x="212" y="307" width="1" height="1" fill="#ffd0f0"/>
<rect x="513" y="132" width="1" height="1" fill="#ffd0f0"/>
<rect x="507" y="139" width="3" height="3" fill="#ffd0f0"/>
<rect x="656" y="183" width="2" height="2" fill="#ffd0f0"/>
<rect x="453" y="322" width="1" height="1" fill="#ffffff"/>
<rect x="286" y="395" width="1" height="1" fill="#ffd0f0"/>
<rect x="542" y="16" width="2" height="2" fill="#ffd0f0"/>
<rect x="501" y="114" width="1" height="1" fill="#ffd0f0"/>
<rect x="305" y="224" width="1" height="1" fill="#ffd0f0"/>
<rect x="163" y="74" width="1" height="1" fill="#ffd0f0"/>
<rect x="231" y="346" width="1" height="1" fill="#ffffff"/>
<rect x="14" y="105" width="2" height="2" fill="#ffffff"/>
<rect x="667" y="96" width="1" height="1" fill="#ffffff"/>
<rect x="248" y="279" width="1" height="1" fill="#ffffff"/>
<rect x="326" y="47" width="1" height="1" fill="#ffd0f0"/>
<rect x="709" y="68" width="2" height="2" fill="#ffffff"/>
<rect x="527" y="410" width="1" height="1" fill="#ffffff"/>
<rect x="21" y="299" width="1" height="1" fill="#ffd0f0"/>
<rect x="160" y="210" width="2" height="2" fill="#ffd0f0"/>
<rect x="477" y="250" width="2" height="2" fill="#ffd0f0"/>
<rect x="641" y="338" width="1" height="1" fill="#ffd0f0"/>
<rect x="730" y="383" width="2" height="2" fill="#ffd0f0"/>
<rect x="673" y="223" width="2" height="2" fill="#ffd0f0"/>
<rect x="255" y="213" width="1" height="1" fill="#ffffff"/>
<rect x="4" y="364" width="3" height="3" fill="#ffd0f0"/>
<rect x="523" y="115" width="2" height="2" fill="#ffd0f0"/>
<rect x="212" y="95" width="1" height="1" fill="#ffd0f0"/>
<rect x="153" y="145" width="1" height="1" fill="#ffffff"/>
<rect x="549" y="316" width="1" height="1" fill="#ffd0f0"/>
<rect x="467" y="73" width="2" height="2" fill="#ffd0f0"/>
<rect x="348" y="89" width="1" height="1" fill="#ffd0f0"/>
<rect x="601" y="255" width="1" height="1" fill="#ffd0f0"/>
<rect x="338" y="33" width="1" height="1" fill="#ffd0f0"/>
<rect x="439" y="107" width="2" height="2" fill="#ffd0f0"/>
<rect x="73" y="55" width="1" height="1" fill="#ffd0f0"/>
<rect x="150" y="274" width="1" height="1" fill="#ffd0f0"/>
<rect x="268" y="183" width="1" height="1" fill="#ffd0f0"/>
<rect x="690" y="113" width="1" height="1" fill="#ffd0f0"/>
<rect x="23" y="305" width="2" height="2" fill="#ffffff"/>
<rect x="37" y="233" width="1" height="1" fill="#ffffff"/>
<rect x="115" y="256" width="2" height="2" fill="#ffd0f0"/>
<rect x="342" y="122" width="1" height="1" fill="#ffffff"/>
<rect x="344" y="397" width="1" height="1" fill="#ffd0f0"/>
<rect x="435" y="13" width="1" height="1" fill="#ffffff"/>
<rect x="170" y="257" width="2" height="2" fill="#ffd0f0"/>
<rect x="28" y="86" width="1" height="1" fill="#ffd0f0"/>
<rect x="21" y="29" width="2" height="2" fill="#ffd0f0"/>
<rect x="474" y="61" width="2" height="2" fill="#ffffff"/>
<rect x="382" y="105" width="3" height="3" fill="#ffd0f0"/>
<rect x="46" y="126" width="1" height="1" fill="#ffd0f0"/>
<rect x="278" y="194" width="3" height="3" fill="#ffd0f0"/>
<rect x="332" y="250" width="1" height="1" fill="#ffd0f0"/>
<rect x="439" y="323" width="1" height="1" fill="#ffd0f0"/>
<rect x="312" y="40" width="1" height="1" fill="#ffd0f0"/>
<rect x="714" y="40" width="1" height="1" fill="#ffd0f0"/>
<rect x="756" y="151" width="1" height="1" fill="#ffd0f0"/>
<rect x="577" y="238" width="1" height="1" fill="#ffd0f0"/>
<rect x="113" y="371" width="2" height="2" fill="#ffd0f0"/>
<rect x="432" y="396" width="1" height="1" fill="#ffd0f0"/>
<rect x="368" y="414" width="2" height="2" fill="#ffd0f0"/>
<rect x="524" y="346" width="1" height="1" fill="#ffd0f0"/>
<rect x="92" y="307" width="1" height="1" fill="#ffd0f0"/>
<rect x="46" y="325" width="2" height="2" fill="#ffd0f0"/>
<rect x="23" y="68" width="3" height="3" fill="#ffd0f0"/>
<rect x="385" y="186" width="3" height="3" fill="#ffd0f0"/>
<rect x="130" y="414" width="1" height="1" fill="#ffd0f0"/>
<rect x="140" y="191" width="2" height="2" fill="#ffd0f0"/>
<rect x="127" y="312" width="1" height="1" fill="#ffd0f0"/>
<rect x="269" y="128" width="1" height="1" fill="#ffd0f0"/>
<rect x="727" y="227" width="3" height="3" fill="#ffd0f0"/>
<rect x="39" y="65" width="1" height="1" fill="#ffffff"/>
<rect x="162" y="212" width="1" height="1" fill="#ffd0f0"/>
<rect x="317" y="319" width="1" height="1" fill="#ffd0f0"/>
<rect x="512" y="416" width="2" height="2" fill="#ffffff"/>
<rect x="10" y="10" width="740" height="400" fill="#c0c0c0" stroke="#808080" stroke-width="2"/><rect x="14" y="14" width="732" height="392" fill="none" stroke="#000000" stroke-width="1"/>
<rect x="22" y="22" width="716" height="54" fill="#000000" stroke="#ff6600" stroke-width="1"/>
<text x="380" y="48" font-family="monospace" font-size="21" font-weight="bold" fill="#ff6600" text-anchor="middle">NEWGROUNDS</text>
<text x="380" y="66" font-family="monospace" font-size="10" fill="#c0c0c0" text-anchor="middle">online subcultures - a memorial in svg</text>
<rect x="22" y="86" width="716" height="180" fill="#000000" opacity="0.72" stroke="#808080"/>
<text x="40" y="108" font-family="monospace" font-size="13" fill="#ff6600">+++ SERVICE TERMINATED +++</text>
<text x="40" y="130" font-family="monospace" font-size="13" fill="#c0c0c0">this page is a memorial</text>
<text x="40" y="152" font-family="monospace" font-size="13" fill="#c0c0c0">the site it remembers is gone</text>
<text x="40" y="174" font-family="monospace" font-size="13" fill="#c0c0c0">what remains: snapshots, stories,</text>
<text x="40" y="196" font-family="monospace" font-size="13" fill="#c0c0c0">and the buttons below.</text>
<text x="40" y="218" font-family="monospace" font-size="13" fill="#c0c0c0"></text>
<text x="40" y="240" font-family="monospace" font-size="13" fill="#00ff66">please do not feed the 404</text>
<g><rect x="22" y="276" width="716" height="26" fill="#ffcc00"/><polygon points="-4,302 8,302 34,276 22,276" fill="#ffcc00"/><polygon points="8,302 20,302 46,276 34,276" fill="#000000"/><polygon points="20,302 32,302 58,276 46,276" fill="#ffcc00"/><polygon points="32,302 44,302 70,276 58,276" fill="#000000"/><polygon points="44,302 56,302 82,276 70,276" fill="#ffcc00"/><polygon points="56,302 68,302 94,276 82,276" fill="#000000"/><polygon points="68,302 80,302 106,276 94,276" fill="#ffcc00"/><polygon points="80,302 92,302 118,276 106,276" fill="#000000"/><polygon points="92,302 104,302 130,276 118,276" fill="#ffcc00"/><polygon points="104,302 116,302 142,276 130,276" fill="#000000"/><polygon points="116,302 128,302 154,276 142,276" fill="#ffcc00"/><polygon points="128,302 140,302 166,276 154,276" fill="#000000"/><polygon points="140,302 152,302 178,276 166,276" fill="#ffcc00"/><polygon points="152,302 164,302 190,276 178,276" fill="#000000"/><polygon points="164,302 176,302 202,276 190,276" fill="#ffcc00"/><polygon points="176,302 188,302 214,276 202,276" fill="#000000"/><polygon points="188,302 200,302 226,276 214,276" fill="#ffcc00"/><polygon points="200,302 212,302 238,276 226,276" fill="#000000"/><polygon points="212,302 224,302 250,276 238,276" fill="#ffcc00"/><polygon points="224,302 236,302 262,276 250,276" fill="#000000"/><polygon points="236,302 248,302 274,276 262,276" fill="#ffcc00"/><polygon points="248,302 260,302 286,276 274,276" fill="#000000"/><polygon points="260,302 272,302 298,276 286,276" fill="#ffcc00"/><polygon points="272,302 284,302 310,276 298,276" fill="#000000"/><polygon points="284,302 296,302 322,276 310,276" fill="#ffcc00"/><polygon points="296,302 308,302 334,276 322,276" fill="#000000"/><polygon points="308,302 320,302 346,276 334,276" fill="#ffcc00"/><polygon points="320,302 332,302 358,276 346,276" fill="#000000"/><polygon points="332,302 344,302 370,276 358,276" fill="#ffcc00"/><polygon points="344,302 356,302 382,276 370,276" fill="#000000"/><polygon points="356,302 368,302 394,276 382,276" fill="#ffcc00"/><polygon points="368,302 380,302 406,276 394,276" fill="#000000"/><polygon points="380,302 392,302 418,276 406,276" fill="#ffcc00"/><polygon points="392,302 404,302 430,276 418,276" fill="#000000"/><polygon points="404,302 416,302 442,276 430,276" fill="#ffcc00"/><polygon points="416,302 428,302 454,276 442,276" fill="#000000"/><polygon points="428,302 440,302 466,276 454,276" fill="#ffcc00"/><polygon points="440,302 452,302 478,276 466,276" fill="#000000"/><polygon points="452,302 464,302 490,276 478,276" fill="#ffcc00"/><polygon points="464,302 476,302 502,276 490,276" fill="#000000"/><polygon points="476,302 488,302 514,276 502,276" fill="#ffcc00"/><polygon points="488,302 500,302 526,276 514,276" fill="#000000"/><polygon points="500,302 512,302 538,276 526,276" fill="#ffcc00"/><polygon points="512,302 524,302 550,276 538,276" fill="#000000"/><polygon points="524,302 536,302 562,276 550,276" fill="#ffcc00"/><polygon points="536,302 548,302 574,276 562,276" fill="#000000"/><polygon points="548,302 560,302 586,276 574,276" fill="#ffcc00"/><polygon points="560,302 572,302 598,276 586,276" fill="#000000"/><polygon points="572,302 584,302 610,276 598,276" fill="#ffcc00"/><polygon points="584,302 596,302 622,276 610,276" fill="#000000"/><polygon points="596,302 608,302 634,276 622,276" fill="#ffcc00"/><polygon points="608,302 620,302 646,276 634,276" fill="#000000"/><polygon points="620,302 632,302 658,276 646,276" fill="#ffcc00"/><polygon points="632,302 644,302 670,276 658,276" fill="#000000"/><polygon points="644,302 656,302 682,276 670,276" fill="#ffcc00"/><polygon points="656,302 668,302 694,276 682,276" fill="#000000"/><polygon points="668,302 680,302 706,276 694,276" fill="#ffcc00"/><polygon points="680,302 692,302 718,276 706,276" fill="#000000"/><polygon points="692,302 704,302 730,276 718,276" fill="#ffcc00"/><polygon points="704,302 716,302 742,276 730,276" fill="#000000"/><polygon points="716,302 728,302 754,276 742,276" fill="#ffcc00"/><polygon points="728,302 740,302 766,276 754,276" fill="#000000"/><rect x="22" y="276" width="716" height="26" fill="none" stroke="#808080" stroke-width="2"/></g>
<g><rect x="34" y="322" width="88" height="31" fill="#000000"/><rect x="35" y="323" width="86" height="29" fill="none" stroke="#ff6600" stroke-width="1"/><rect x="37" y="325" width="82" height="11" fill="#ff6600"/><text x="78" y="333" font-family="monospace" font-size="8" fill="#ffffff" text-anchor="middle" font-weight="bold">DEAD WEB</text><text x="78" y="346" font-family="monospace" font-size="6" fill="#ff6600" text-anchor="middle">BEST VIEWED 800x600</text></g>
<g><rect x="132" y="322" width="88" height="31" fill="#000000"/><rect x="133" y="323" width="86" height="29" fill="none" stroke="#800000" stroke-width="1"/><rect x="135" y="325" width="82" height="11" fill="#800000"/><text x="176" y="333" font-family="monospace" font-size="8" fill="#ffffff" text-anchor="middle" font-weight="bold">DEAD WEB</text><text x="176" y="346" font-family="monospace" font-size="6" fill="#800000" text-anchor="middle">MADE WITH NOTEPAD</text></g>
<text x="240" y="334" font-family="monospace" font-size="10" fill="#c0c0c0">[ this site is best viewed in any browser ]</text>
<g><rect x="34" y="366" width="11" height="18" fill="#000000" stroke="#00ff00" stroke-width="1"/><text x="39" y="380" font-family="monospace" font-size="13" fill="#00ff00" text-anchor="middle">7</text><rect x="47" y="366" width="11" height="18" fill="#000000" stroke="#00ff00" stroke-width="1"/><text x="52" y="380" font-family="monospace" font-size="13" fill="#00ff00" text-anchor="middle">9</text><rect x="60" y="366" width="11" height="18" fill="#000000" stroke="#00ff00" stroke-width="1"/><text x="65" y="380" font-family="monospace" font-size="13" fill="#00ff00" text-anchor="middle">1</text><rect x="73" y="366" width="11" height="18" fill="#000000" stroke="#00ff00" stroke-width="1"/><text x="78" y="380" font-family="monospace" font-size="13" fill="#00ff00" text-anchor="middle">3</text><rect x="86" y="366" width="11" height="18" fill="#000000" stroke="#00ff00" stroke-width="1"/><text x="91" y="380" font-family="monospace" font-size="13" fill="#00ff00" text-anchor="middle">6</text><rect x="99" y="366" width="11" height="18" fill="#000000" stroke="#00ff00" stroke-width="1"/><text x="104" y="380" font-family="monospace" font-size="13" fill="#00ff00" text-anchor="middle">4</text><rect x="112" y="366" width="11" height="18" fill="#000000" stroke="#00ff00" stroke-width="1"/><text x="117" y="380" font-family="monospace" font-size="13" fill="#00ff00" text-anchor="middle">2</text><text x="34" y="396" font-family="monospace" font-size="8" fill="#c0c0c0">hits! you are visitor</text></g>
<text x="724" y="396" font-family="monospace" font-size="9" fill="#808080" text-anchor="end">last updated 2000 - gfx generated offline</text>
</svg>
